<svg width="123" height="123" viewBox="0 0 123 123" fill="none" xmlns="http://www.w3.org/2000/svg">
<g clip-path="url(#clip0_37_5)">
<path d="M1.42599 8.31299C-0.475006 6.41199 -0.475006 3.32899 1.42599 1.42699C3.32699 -0.475012 6.40999 -0.475012 8.31199 1.42699L61.439 54.554L114.566 1.42699C116.467 -0.475012 119.55 -0.475012 121.453 1.42699C123.354 3.32799 123.354 6.41199 121.453 8.31299L68.324 61.439L121.452 114.567C123.353 116.468 123.353 119.551 121.452 121.453C119.55 123.355 116.467 123.355 114.565 121.453L61.438 68.326L8.31199 121.453C6.41099 123.355 3.32799 123.355 1.42599 121.453C-0.475006 119.552 -0.475006 116.469 1.42599 114.567L54.553 61.439L1.42599 8.31299Z" fill="white"/>
</g>
<defs>
<clipPath id="clip0_37_5">
<rect width="122.878" height="122.88" fill="white"/>
</clipPath>
</defs>
</svg>
